<?xml version="1.0" encoding="UTF-8"?>
<svg width="48px" height="48px" viewBox="0 0 48 48" version="1.1" xmlns="http://www.w3.org/2000/svg" xmlns:xlink="http://www.w3.org/1999/xlink">
    <title>Icon/LZR/Notify/Important</title>
    <g id="Icon/LZR/Notify/Important" stroke="none" stroke-width="1" fill="none" fill-rule="evenodd">
        <path d="M24.0839,5.9999 C25.0279,5.9999 25.8769,6.5239 26.2999,7.3669 L39.9029,34.4749 C40.2909,35.2489 40.2519,36.1509 39.7969,36.8889 C39.3419,37.6259 38.5529,38.0659 37.6869,38.0659 L10.4819,38.0659 C9.6159,38.0659 8.8259,37.6259 8.3709,36.8889 C7.9169,36.1509 7.8769,35.2489 8.2659,34.4749 L21.8679,7.3669 C22.2909,6.5239 23.1399,5.9999 24.0839,5.9999 Z M24.0839,7.9999 C24.006025,7.9999 23.8286187,8.01980625 23.7050934,8.18489414 L23.6559,8.2649 L10.0529,35.3729 C9.9489,35.5799 10.0209,35.7539 10.0739,35.8389 C10.1259,35.9239 10.2489,36.0659 10.4819,36.0659 L37.6869,36.0659 C37.9199,36.0659 38.0419,35.9239 38.0949,35.8389 C38.1469,35.7539 38.2199,35.5799 38.1159,35.3729 L24.5129,8.2649 C24.3929,8.0259 24.1729,7.9999 24.0839,7.9999 Z M25.264,30.0664 L25.264,34.0664 L23.264,34.0664 L23.264,30.0664 L25.264,30.0664 Z M25.264,16.0664 L25.264,27.0664 L23.264,27.0664 L23.264,16.0664 L25.264,16.0664 Z" id="Combined-Shape" fill="#FFE500"></path>
    </g>
</svg>